<svg width="133" height="112" viewBox="0 0 133 112" fill="none" xmlns="http://www.w3.org/2000/svg">
<path d="M68.6188 111.681C67.1606 112.296 65.8265 112.069 65.0923 110.581C64.2443 108.865 65.4129 107.732 66.4884 106.599C84.8965 87.0706 103.294 67.5203 121.702 47.9916C123.191 46.4164 124.412 44.7116 124.815 42.4782C125.353 39.4896 123.657 37.6015 120.792 38.087C119.096 38.3783 117.721 39.2414 116.459 40.5469C97.6373 60.0864 78.7639 79.5828 59.9008 99.0791C56.7466 102.337 56.757 102.327 53.6545 99.1223C49.9211 95.2705 46.2188 91.3755 42.3821 87.6424C40.7275 86.0348 40.5516 84.9559 42.258 83.1648C54.1405 70.7139 65.9196 58.1552 77.7504 45.6395C79.3637 43.9348 80.5944 42.1653 79.5395 39.6191C78.7225 37.6662 77.1609 36.9001 75.2581 36.8462C73.4276 36.7815 72.1556 37.9791 70.925 39.2307C60.604 49.8042 50.2728 60.367 39.9415 70.9297C38.4523 72.451 36.839 73.8429 35.4636 75.4613C34.0571 77.1336 32.8161 76.9286 31.4614 75.5584C28.8967 72.9689 26.3319 70.3795 23.7982 67.7684C16.404 60.1404 9.11315 52.3937 1.58446 44.9058C-0.690691 42.6401 -0.390778 41.3561 1.68789 39.2522C12.5156 28.3226 23.2295 17.2851 33.933 6.22606C36.2599 3.83082 38.2662 1.15507 41.8237 0.572443C45.5053 -0.0209711 48.6698 0.74507 51.369 3.52872C56.0951 8.38392 60.9453 13.1312 65.6197 18.0404C67.0158 19.5077 67.8432 19.4646 69.1772 17.9972C73.469 13.2715 77.9055 8.68602 82.249 4.01424C87.0992 -1.19701 94.4418 -1.38043 99.4678 3.73372C108.548 12.9802 117.566 22.2806 126.625 31.5378C127.618 32.552 128.652 33.5015 129.707 34.4402C133.957 38.238 134.092 44.7332 130.12 48.8224C113.481 65.9666 96.8927 83.1433 80.2738 100.309C79.7877 100.816 79.2396 101.248 78.7122 101.712C77.709 101.83 77.5332 102.855 76.9438 103.438C76.1061 104.301 75.2581 105.164 74.4204 106.027C73.924 106.243 73.5517 106.599 73.3552 107.128C72.5176 108.002 71.6902 108.876 70.8526 109.75C69.7253 109.901 69.4461 111.12 68.6188 111.659V111.681Z" fill="#FFDF70"/>
</svg>
